<svg xmlns="http://www.w3.org/2000/svg" viewBox="0 0 1200 620" role="img" aria-labelledby="title desc"><title id="title">codebynv 2026 Direction</title><desc id="desc">A polished 3D holographic roadmap for codebynv's 2026 direction, showing a progression from consistency and skills to projects, career, impact and freedom.</desc><defs><linearGradient id="bg" x1="0" y1="0" x2="1" y2="1"><stop stop-color="#050913"/><stop offset=".5" stop-color="#10182d"/><stop offset="1" stop-color="#060a13"/></linearGradient><radialGradient id="aura"><stop stop-color="#4fdcff" stop-opacity=".24"/><stop offset="1" stop-color="#4fdcff" stop-opacity="0"/></radialGradient><linearGradient id="glass" x1="0" y1="0" x2="1" y2="1"><stop stop-color="#ffffff" stop-opacity=".16"/><stop offset="1" stop-color="#ffffff" stop-opacity=".025"/></linearGradient><linearGradient id="cyan" x1="0" y1="0" x2="1" y2="1"><stop stop-color="#8ff4ff"/><stop offset=".45" stop-color="#39cfff"/><stop offset="1" stop-color="#5268ff"/></linearGradient><linearGradient id="violet" x1="0" y1="0" x2="1" y2="1"><stop stop-color="#9c8cff"/><stop offset="1" stop-color="#43d9ff"/></linearGradient><linearGradient id="gold" x1="0" y1="0" x2="1" y2="1"><stop stop-color="#fff1a8"/><stop offset="1" stop-color="#ff9b3d"/></linearGradient><filter id="shadow"><feDropShadow dx="0" dy="18" stdDeviation="18" flood-color="#000" flood-opacity=".55"/></filter><filter id="soft"><feGaussianBlur stdDeviation="13"/></filter><filter id="glow"><feGaussianBlur stdDeviation="5" result="b"/><feMerge><feMergeNode in="b"/><feMergeNode in="SourceGraphic"/></feMerge></filter><style>.ey{font:600 10px monospace;letter-spacing:2px;fill:#6e86b8}.title{font:800 34px Arial,sans-serif;fill:#f6f9ff}.sub{font:500 13px Arial,sans-serif;fill:#aab9d4}.cardh{font:800 15px Arial,sans-serif;fill:#f7fbff}.cardt{font:500 11px Arial,sans-serif;fill:#aab9d4}.step{font:800 14px Arial,sans-serif;fill:#fff}.step2{font:500 10px Arial,sans-serif;fill:#91a3c4}.flow{fill:none;stroke:url(#cyan);stroke-width:5;stroke-linecap:round;stroke-dasharray:8 12;filter:url(#glow);animation:f 2.2s linear infinite}.dash{fill:none;stroke:#5d719a;stroke-width:1.5;stroke-dasharray:3 11;opacity:.55}.float{animation:u 4s ease-in-out infinite}.pulse{animation:p 2.2s ease-in-out infinite}@keyframes f{to{stroke-dashoffset:-80}}@keyframes u{50%{transform:translateY(-6px)}}@keyframes p{50%{opacity:.35;filter:url(#glow)}}</style></defs><rect width="1200" height="620" rx="30" fill="url(#bg)"/><ellipse cx="600" cy="330" rx="350" ry="260" fill="url(#aura)"/><g class="dash"><ellipse cx="600" cy="335" rx="315" ry="190"/><ellipse cx="600" cy="335" rx="250" ry="145"/><path d="M350 335h500M600 180v310"/></g><text x="52" y="49" class="ey">CODEBYNV / 2026 ROADMAP</text><text x="52" y="85" class="title">2026 Direction</text><text x="52" y="108" class="sub">A better version of me — built through consistency, skills and real work.</text><g class="float" filter="url(#shadow)"><rect x="45" y="145" width="235" height="112" rx="22" fill="url(#glass)" stroke="#32476f"/><circle cx="76" cy="178" r="16" fill="#0e1d36" stroke="#4fdcff"/><path d="M69 179l6-7 7 7-7 7z" fill="none" stroke="#8ef3ff" stroke-width="2"/><text x="103" y="175" class="cardh">AI / ML</text><text x="103" y="198" class="cardt">ML · Deep Learning · CV</text><text x="103" y="218" class="cardt">NLP · AI Applications</text><text x="103" y="239" class="cardt">Understand → experiment → apply</text></g><g class="float" filter="url(#shadow)"><rect x="45" y="270" width="235" height="112" rx="22" fill="url(#glass)" stroke="#32476f"/><circle cx="76" cy="303" r="16" fill="#0e1d36" stroke="#6e7dff"/><path d="M68 309h16M70 299h12v7H70z" fill="none" stroke="#a79cff" stroke-width="2"/><text x="103" y="300" class="cardh">FULL-STACK</text><text x="103" y="323" class="cardt">React · APIs · Backend</text><text x="103" y="343" class="cardt">Databases · Cloud · Systems</text><text x="103" y="364" class="cardt">Idea → product</text></g><g class="float" filter="url(#shadow)"><rect x="45" y="395" width="235" height="112" rx="22" fill="url(#glass)" stroke="#32476f"/><circle cx="76" cy="428" r="16" fill="#0e1d36" stroke="#46d7ff"/><path d="M76 416v10M69 430l7 7 7-7M76 437v-7" fill="none" stroke="#8ef3ff" stroke-width="2"/><text x="103" y="425" class="cardh">TECH EXPLORATION</text><text x="103" y="448" class="cardt">Cybersecurity · DevOps</text><text x="103" y="468" class="cardt">Open Source · Hackathons</text><text x="103" y="489" class="cardt">Explore what is next</text></g><g class="float" filter="url(#shadow)"><rect x="920" y="145" width="235" height="112" rx="22" fill="url(#glass)" stroke="#32476f"/><circle cx="951" cy="178" r="16" fill="#0e1d36" stroke="#ffcf71"/><path d="M944 184c2-7 12-7 14 0M946 175a5 5 0 1 0 10 0" fill="none" stroke="#ffe49b" stroke-width="2"/><text x="978" y="175" class="cardh">PERSONAL GROWTH</text><text x="978" y="198" class="cardt">Discipline · Fitness · Reading</text><text x="978" y="218" class="cardt">Better habits · Stronger mindset</text><text x="978" y="239" class="cardt">Improve the person behind the code</text></g><g class="float" filter="url(#shadow)"><rect x="920" y="270" width="235" height="112" rx="22" fill="url(#glass)" stroke="#32476f"/><circle cx="951" cy="303" r="16" fill="#0e1d36" stroke="#49dfff"/><path d="M944 309h14M951 296v13M946 299l5-5 5 5" fill="none" stroke="#8ef3ff" stroke-width="2"/><text x="978" y="300" class="cardh">CREATE &amp; SHARE</text><text x="978" y="323" class="cardt">GitHub · LinkedIn · Content</text><text x="978" y="343" class="cardt">Document · Collaborate · Contribute</text><text x="978" y="364" class="cardt">Build a visible body of work</text></g><g class="float" filter="url(#shadow)"><rect x="920" y="395" width="235" height="112" rx="22" fill="url(#glass)" stroke="#32476f"/><circle cx="951" cy="428" r="16" fill="#0e1d36" stroke="#8d82ff"/><path d="M944 433l7-10 7 10M947 433h8" fill="none" stroke="#b0a9ff" stroke-width="2"/><text x="978" y="425" class="cardh">LIFE GOALS</text><text x="978" y="448" class="cardt">Career · Financial independence</text><text x="978" y="468" class="cardt">Travel · Family · Meaningful impact</text><text x="978" y="489" class="cardt">Build a life worth living</text></g>
<!-- central 3D platform -->
<g filter="url(#shadow)"><polygon points="395,505 600,575 805,505 730,470 600,520 470,470" fill="#09101f" stroke="#3a517e"/><polygon points="445,487 600,535 755,487 710,458 600,500 490,458" fill="#121f36" stroke="#42608f"/><polygon points="490,458 600,500 710,458 600,420" fill="url(#violet)" opacity=".3" stroke="#5f7dff"/><ellipse cx="600" cy="427" rx="105" ry="25" fill="url(#aura)" filter="url(#soft)"/></g>
<!-- energy path -->
<path d="M470 465 C510 438 492 414 535 396 C575 379 540 350 575 330 C610 310 582 285 615 266 C646 248 625 220 653 195" class="flow"/><circle class="pulse" cx="653" cy="195" r="9" fill="#ffe38c"/><circle cx="653" cy="195" r="18" fill="none" stroke="#ffc866" opacity=".4"/>
<!-- floating milestones -->
<g class="float" filter="url(#shadow)"><rect x="423" y="430" width="168" height="52" rx="15" fill="#0e1729" stroke="#334c7d"/><text x="444" y="453" class="step">01 CONSISTENCY</text><text x="444" y="469" class="step2">Show up every day</text></g><g class="float" filter="url(#shadow)"><rect x="480" y="365" width="168" height="52" rx="15" fill="#0e1729" stroke="#334c7d"/><text x="501" y="388" class="step">02 SKILLS</text><text x="501" y="404" class="step2">Learn &amp; improve</text></g><g class="float" filter="url(#shadow)"><rect x="543" y="300" width="168" height="52" rx="15" fill="#0e1729" stroke="#334c7d"/><text x="564" y="323" class="step">03 PROJECTS</text><text x="564" y="339" class="step2">Build &amp; ship</text></g><g class="float" filter="url(#shadow)"><rect x="596" y="235" width="168" height="52" rx="15" fill="#0e1729" stroke="#334c7d"/><text x="617" y="258" class="step">04 CAREER</text><text x="617" y="274" class="step2">Create opportunities</text></g><g class="float" filter="url(#shadow)"><rect x="665" y="168" width="168" height="52" rx="15" fill="#151d2d" stroke="#ffcd6d"/><text x="686" y="191" class="step">05 IMPACT</text><text x="686" y="207" class="step2">Solve real problems</text></g>
<!-- core badge -->
<g filter="url(#shadow)"><rect x="523" y="132" width="154" height="58" rx="18" fill="#0d172a" stroke="#4ddaff"/><text x="549" y="158" class="ey">CORE FOCUS</text><text x="549" y="178" class="step">BUILD • SHIP • GROW</text></g><text x="52" y="563" class="ey">2026 / DISCIPLINE TODAY • SKILLS TOMORROW • IMPACT OVER TIME</text><text x="925" y="563" class="ey">LEARN → BUILD → SHARE → GROW</text></svg>